<svg width="1440" height="1024" viewBox="0 0 1440 1024" fill="none" xmlns="http://www.w3.org/2000/svg">
<path d="M909 1023.79C515.894 1023.79 122.787 1023.77 -270.342 1024C-279.05 1024 -281 1022.05 -281 1013.34C-280.745 679.114 -280.745 344.886 -281 10.658C-281 1.95048 -279.05 0 -270.342 0C515.87 0.2322 1302.11 0.2322 2088.32 0C2097.03 0 2099 1.95048 2098.98 10.658C2098.72 344.886 2098.72 679.114 2098.98 1013.34C2098.98 1022.05 2097.03 1024 2088.32 1024C1695.21 1023.74 1302.11 1023.79 908.977 1023.79H909ZM666.565 380.807L666.379 380.691C667.331 382.851 669.212 383.176 671.255 383.106L670.954 383.013C677.664 388.888 684.56 387.309 691.526 383.524C702.393 378.114 708.314 368.849 711.866 357.68C714.42 359.189 714.908 361.953 716.046 364.368C726.053 385.335 744.141 392.185 765.387 383.199C780.619 376.744 785.913 363.671 789.118 348.81C791.974 335.575 786.54 326.821 775.441 320.551C755.844 304.948 735.806 289.808 716.742 273.578C699.258 258.67 680.961 244.994 661.968 232.176C653.214 221.96 641.651 215.086 631.527 206.495C630.273 175.45 634.267 144.126 626.906 113.36C622.982 97.013 614.6 84.0562 599.252 76.2543C598.648 70.3332 593.354 70.937 589.685 69.8224C576.845 65.9447 563.656 67.5933 550.56 67.8255C542.039 67.0128 533.494 66.2001 524.972 65.3874C523.904 63.4834 522.07 63.019 520.143 63.0886C501.59 63.6459 483.27 58.6536 464.671 60.8827C446.073 59.3038 427.497 57.7016 408.898 56.1226C401.677 51.3858 393.411 54.2186 385.702 52.8718C381.615 50.5963 377.459 51.1536 373.279 52.5003C372.629 52.2217 372.072 52.361 371.631 52.9183C366.151 53.2666 360.625 51.1303 355.191 53.1737C330.997 54.1722 311.446 74.3271 311.237 99.2653C310.796 155.272 312.212 211.255 313.93 267.215C314.139 303.578 312.909 339.963 316.949 376.21C316.717 387.611 316.461 399.012 316.229 410.413C316.206 424.02 316.183 437.603 316.136 451.21C316.74 471.017 317.344 490.823 317.97 510.63C314.952 520.893 314.325 531.133 318.249 541.35C318.412 547.132 318.597 552.914 318.714 558.695C319.271 582.983 317.204 607.295 319.991 631.536C317.181 647.047 320.362 662.465 320.664 677.953C320.548 682.133 319.712 686.451 320.432 690.469C322.104 699.733 318.505 703.147 309.565 701.846C309.403 699.176 309.263 696.506 309.077 693.835C307.336 668.061 284.418 644.888 259.179 643.355C237.12 641.753 217.964 645.19 201.478 663.255C177.655 689.308 178.259 727.133 202.57 750.678C201.014 753.139 199.458 755.601 197.902 758.062C184.18 737.071 170.062 716.336 156.943 694.996C152.369 687.543 146.773 686.707 139.482 687.613C101.913 692.28 64.367 697.017 26.7746 701.382C19.9481 702.171 18.6246 702.984 23.2917 709.114C35.2265 724.718 46.4415 740.856 57.9584 756.762C47.9044 756.808 37.7342 757.876 27.8195 756.738C-5.33796 752.93 -38.7044 751.955 -71.9547 750.492C-91.7378 749.61 -111.869 752.419 -131.536 755.438C-148.556 758.062 -165.994 757.272 -182.712 762.079C-190.839 760.128 -189.399 766.096 -189.422 770.438C-189.492 825.353 -189.329 880.292 -189.608 935.207C-189.654 944.402 -186.009 947.026 -177.302 947.421C-155.893 948.373 -134.462 949.836 -113.146 951.972C-86.1419 954.688 -59.2769 958.961 -32.0172 958.659C-15.1134 956.244 1.07062 950.811 17.51 946.492C36.55 941.5 55.5204 936.275 74.5371 931.143C74.5836 939.99 74.6532 948.86 74.6765 957.707C74.6765 961.747 74.7461 965.741 80.3653 965.718C88.794 965.718 96.8743 968.133 105.373 968.411C124.413 969.085 143.453 970.873 162.377 973.171C185.782 976.028 209.21 978.442 232.778 979.302C263.08 971.059 293.149 961.747 323.775 954.944C341.84 950.927 354.193 945.099 350.594 923.876C356.84 920.091 363.086 922.807 369.332 923.876C382.73 924.34 396.058 924.433 409.363 921.809C437.644 916.19 466.459 913.287 494.392 905.764C499.849 903.837 505.398 902.42 511.273 903.233C511.877 903.697 512.434 904.557 513.061 904.58C546.427 906.53 579.794 908.434 613.137 910.292C618.013 910.571 622.053 909.108 624.77 902.327C615.9 905.996 610.049 899.75 603.199 898.635C594.213 897.173 584.832 898.403 575.568 899.611C561.915 901.422 548.053 902.327 534.376 898.961C553.997 894.758 573.501 889.812 593.795 890.439C621.775 888.326 649.22 897.892 677.78 891.739C713.306 884.077 750.155 884.448 786.029 878.991C812.337 874.998 839.341 884.239 864.929 873.047C868.273 871.584 872.429 873.442 876.237 874.278C891.353 877.505 905.796 871.863 920.935 870.632C914.155 868.519 909.859 862.482 903.242 861.53C890.146 859.626 876.562 864.386 863.699 856.584C858.312 853.31 850.301 854.309 843.498 853.357C875.494 856.793 907.026 852.799 938.675 848.829C934.309 844.463 929.433 842.815 923.977 842.722C919.635 842.652 917.939 840.586 918.148 836.151C918.357 831.948 920.842 830.787 924.162 830.787C937.676 830.787 951.074 827.211 964.587 829.045C972.412 830.113 979.494 834.525 987.993 833.689C995.052 832.993 1005.11 831.878 1004.55 842.42C1004.11 850.872 995.562 849.014 989.154 847.853C984.928 847.087 982.165 850.315 981.538 853.519C980.725 857.606 985.578 855.632 987.343 857.141C993.473 862.32 1001.27 863.039 1008.01 861.762C1022.78 858.929 1037.8 859.254 1052.5 856.561C1080.13 851.499 1108.04 850.315 1136.04 849.943C1145.68 849.827 1155.34 850.431 1164.74 847.621C1164.74 850.408 1163.86 852.822 1161.7 854.703C1153.48 855.005 1145 852.614 1137.06 858.186C1144.38 858.511 1151.69 858.836 1159.03 859.162C1153.66 869.494 1149.65 880.663 1140.5 888.628C1125.45 886.84 1112.15 894.851 1097.66 896.36C1092.13 896.94 1082.77 894.479 1083.54 903.535C1084.19 911.43 1092.88 907.297 1097.82 907.598C1104.76 908.04 1108.9 908.62 1109.52 917.49C1110.45 930.377 1120.27 938.202 1132.98 938.713C1145.33 939.201 1155.54 931.654 1158.7 919.65C1159.7 915.888 1158.01 910.478 1164.65 910.292C1187.52 909.688 1210.51 908.318 1232.54 920.555C1226.32 922.297 1220.95 923.806 1215.36 925.385C1229.45 944.425 1249.14 942.614 1267.49 938.551C1284.81 934.719 1302.43 935.277 1319.8 931.747C1332.96 929.077 1346.32 924.874 1360.2 925.153C1363.45 925.222 1367.59 924.177 1369.86 922.088C1378.1 914.448 1387.93 914.1 1398.07 914.82C1400.3 914.982 1404.09 912.893 1404.53 917.002C1404.97 921.02 1401.72 922.134 1398.33 922.041C1390.87 921.879 1384.35 924.177 1375.99 929.843C1384.84 931.097 1391.2 931.329 1397.33 929.216C1404.71 926.662 1406.55 931.422 1409.06 936.554C1412.31 943.171 1407.06 943.45 1403.44 945.099C1400.02 946.631 1396.4 948.257 1400.51 952.459C1406.85 958.961 1437.73 957.034 1443.26 949.975C1459.53 929.193 1459.93 924.061 1446.49 900.911C1454.17 900.911 1461.44 901.19 1468.68 900.841C1480.62 900.284 1493.32 901.631 1504.33 898.009C1525.8 890.926 1545.7 894.293 1565.6 901.979C1574.17 905.3 1582.53 906.182 1591.56 904.928C1615.38 901.608 1638.74 889.673 1663.4 900.656C1666.17 901.886 1671.74 898.101 1671.71 903.279C1671.67 909.758 1666.14 905.973 1662.8 906.159C1661.47 906.228 1659.43 905.81 1660.08 909.084C1666.84 909.386 1673.34 911.917 1680.05 913.264C1687.69 914.797 1694.7 916.143 1702.18 909.084C1707.5 904.069 1715 897.73 1722.19 896.917C1736.68 895.315 1751.52 896.43 1766.01 893.666C1771.33 892.645 1781.22 897.567 1778.9 884.843C1778.8 884.309 1782.01 882.521 1783.73 882.451C1790.16 882.219 1796.47 881.197 1802.93 884.402C1811.94 888.906 1821.69 890.067 1831.81 885.493C1826.77 882.66 1820.81 886.909 1815.75 882.103C1822.39 876.437 1829.82 877.877 1836.85 877.621C1842.33 877.412 1848.69 877.761 1851.27 872.234C1854.59 865.152 1844.03 868.055 1842.68 862.134C1862.28 860.462 1881.41 859.951 1900.22 856.631C1901.84 856.352 1905.16 856.584 1903.79 859.185C1900.12 866.174 1904.84 867.776 1909.58 868.101C1916.45 868.542 1924.27 867.521 1928.78 862.668C1933.38 857.745 1932.17 856.723 1935.58 856.723C1950.91 856.723 1965.14 852.985 1978.86 844.533C1974.33 841.607 1970.39 842.652 1966.74 842.791C1939.85 843.929 1913.03 840.284 1886.05 842.42C1855.24 844.858 1824.29 839.355 1793.57 840.911C1764.36 842.397 1735.24 840.377 1706.06 841.654C1691.38 842.304 1676.5 837.73 1661.68 835.779C1643.76 833.411 1626.44 838.983 1608.79 840.237C1610.02 834.339 1616.48 830.717 1615.87 824.03L1615.73 824.216C1624.79 813.093 1620.14 801.065 1618.08 789.2L1618.22 789.409C1617.52 787.737 1619.01 785.02 1615.89 784.486L1616.01 784.672C1617.1 781.886 1614.94 780.771 1613.32 779.378C1609.51 773.433 1602.8 771.204 1596.97 769.788C1575.75 764.61 1552.27 769.672 1550.37 800.694C1549.25 818.921 1558.52 831.646 1567.48 845.23C1550.62 848.434 1533.16 846.785 1516.49 851.522C1515.75 844.765 1516.26 837.985 1511.29 831.994C1487.68 803.573 1464.69 774.641 1440.89 746.382C1431.16 734.842 1425.84 719.586 1411.86 711.529C1410.43 710.693 1409.73 708.534 1407.66 705.422C1445.74 706.397 1477.76 688.982 1511.48 677.558C1517.75 674.238 1529.12 676.908 1527.34 664.091C1527.75 658.564 1530.49 651.436 1528.03 647.86C1524.2 642.241 1520.32 653.711 1514.75 650.762C1514.43 650.6 1514.05 650.53 1513.73 650.414C1513.73 646.304 1513.73 642.218 1513.73 638.108C1513.78 624.292 1517.42 610.708 1516.17 596.776C1515.47 588.788 1523.46 588.254 1527.34 588.626C1532.61 589.137 1527.8 593.874 1527.85 596.799C1527.92 601.257 1525.87 606.319 1531.54 612.217C1532.68 596.73 1532.23 583.239 1535.07 570.445C1537.48 559.508 1531.24 545.739 1545.35 537.17C1529.49 533.548 1514.5 530.112 1499.5 526.675C1492.48 519.639 1484.19 517.457 1474.63 520.15C1468.61 514.786 1460.72 514.995 1453.54 513.068C1453.15 497.58 1454.96 482.604 1462.48 468.648C1463.78 466.233 1467.94 462.17 1463.04 460.22C1458.84 458.524 1456.7 462.309 1455.54 466.628C1451.69 480.909 1447.34 495.073 1443.16 509.283C1435.13 507.588 1427.12 505.87 1419.09 504.175C1424.12 487.642 1429.12 471.086 1437.5 455.831C1440.45 450.467 1443.49 444.755 1452.78 454.02C1448.39 441.922 1443.4 440.645 1437.15 446.729C1432.48 451.28 1429.84 457.224 1427.68 463.54C1423.24 476.497 1420.15 489.987 1413.26 502.015C1408.8 500.947 1404.32 500.018 1399.93 498.741C1395.36 497.418 1391.5 497.162 1390.43 503.13C1380.66 500.994 1370.86 498.881 1361.08 496.744C1362.36 481.582 1366.54 467.557 1377.38 456.295C1378.66 454.972 1382.61 455.459 1379.82 451.976C1378.08 449.771 1375.92 449.608 1373.92 451.535C1371.72 453.648 1368.89 455.668 1367.84 458.339C1363.13 470.343 1351.59 480.049 1355.16 494.91C1346.29 494.562 1337.68 493.122 1329.51 489.477C1331.8 476.938 1337.38 465.537 1342.23 453.788C1331.01 462.518 1327.97 475.196 1325 487.874C1315.67 488.594 1307.19 484.508 1298.25 483.068C1294.86 479.376 1296.84 472.689 1291.19 470.111C1289.2 474.268 1292.8 477.611 1292.52 481.419C1284.41 480.328 1276.33 479.237 1268.23 478.145C1265.12 472.596 1262.03 467.069 1258.92 461.543C1258.15 459.964 1257.36 458.408 1256.6 456.829C1255.83 456.017 1255.09 455.204 1254.32 454.391C1241.71 443.942 1243.55 458.85 1239.25 462.983C1219.65 451.326 1199.85 440.041 1180.53 427.921C1167.57 419.794 1155.57 414.755 1138.76 417.146C1105.79 421.837 1072.23 422.534 1038.91 424.786C1034.94 425.065 1030.44 425.506 1029.46 429.476C1028.44 433.609 1033.36 434.654 1036.17 436.326C1072.47 457.735 1108.76 479.121 1145.24 500.181C1149.32 502.549 1151.41 504.918 1152.46 509.469C1161.4 548.409 1170.08 587.442 1180.02 626.126C1182.67 636.459 1179.81 647.79 1184.34 656.707C1190.4 668.595 1191.56 681.459 1195.58 693.65C1198.38 702.195 1197.34 714.826 1202.91 718.843C1208.97 723.209 1220.72 719.935 1229.96 719.633C1236.3 719.424 1238.81 720.817 1235 727.319C1217.1 758.015 1199.36 788.828 1181.55 819.595C1140.45 821.197 1099.35 822.265 1058.23 820.315L1077.04 819.2C1069.47 816.901 1061.9 815.253 1054.33 815.16C1021.48 814.811 988.62 815.113 955.764 814.626C949.75 814.533 946.151 821.499 938.512 817.505C926.391 811.166 913.574 814.556 901.964 820.663C892.282 825.771 882.971 829.115 871.826 825.168C867.507 823.635 860.866 821.94 857.685 825.493C850.301 833.713 850.951 833.225 841.617 832.435C824.945 831.019 808.483 828.952 791.556 834.502C774.791 840.005 757.493 845.74 739.01 842.536C732.741 841.445 725.798 843.79 718.437 837.358C735.829 841.932 747.346 827.582 762.554 829.951C743.491 827.025 723.778 834.456 705.504 824.262C703.438 823.101 700.187 824.099 697.47 824.053C678.593 823.798 659.739 823.96 640.954 826.189C638.632 677.465 636.31 528.742 633.988 379.995C641.418 373.214 646.271 364.785 649.917 355.544C651.054 364.228 656.047 370.846 661.666 377.115C662.571 379.252 663.988 380.714 666.519 380.691L666.565 380.807ZM912.645 320.575L912.576 320.691C915.664 320.644 916.57 318.392 917.289 315.977L917.243 316.024C925.161 308.315 932.196 299.932 937.583 290.249C945.64 281.472 956.995 285.42 966.561 283.748C993.124 279.127 1020.27 277.827 1046.97 273.74C1077.11 269.142 1107.32 265.288 1137.62 262.084C1139.41 261.503 1141.17 260.714 1143.01 260.365C1172.73 254.816 1190.1 232.548 1188.38 202.06C1190.58 189.359 1184.85 177.099 1186.4 164.42C1187.96 151.696 1185.17 139.157 1183.66 126.688C1182.67 118.445 1181.27 108.994 1172.26 104.188C1158.66 87.7946 1142.29 79.9231 1120.51 85.821C1095.38 92.6012 1070.05 98.6152 1044.79 104.954C1013.72 112.199 982.118 117.33 951.933 128.081C942.575 130.241 933.148 132.098 923.907 134.653C915.966 136.858 907.003 136.766 901.059 143.964C887.777 147.122 872.174 170.202 872.429 186.108C872.708 204.614 872.847 223.121 873.033 241.627C871.918 257.927 872.406 273.624 888.753 283.353C890.262 288.949 887.475 293.918 886.222 299.05C879.674 325.613 872.847 352.131 866.137 378.648C881.601 363.532 894.604 347.162 906.26 329.747C907.63 328.26 909 326.751 910.37 325.265L910.231 325.381C911.995 324.267 913.272 322.92 912.669 320.598L912.645 320.575ZM1280.88 451.14C1284.13 455.993 1284.95 462.402 1290.22 466.675C1292.59 458.246 1287.99 453.764 1282.95 449.492C1281.12 445.637 1276.98 444.267 1274.45 446.334C1270.88 449.26 1267.46 453.509 1268.76 459.987C1274.5 458.362 1273.36 448.54 1280.88 451.14ZM1769.93 497.162C1814.35 483.207 1841.68 429.174 1811.64 382.618C1795.59 357.75 1753.73 343.818 1726.61 354.383C1700.69 364.46 1683.95 381.852 1676.01 408.16C1672.36 413.338 1671.2 419.097 1671.16 425.39C1670.95 453.021 1681.79 475.916 1704.38 490.916C1724.21 504.082 1746.67 510.259 1769.96 497.162H1769.93ZM1410.94 248.825C1420.15 283.492 1479.78 306.318 1516.28 297.796C1523.11 297.703 1530.01 295.845 1536.48 300.025C1546.89 306.689 1558.4 310.451 1570.5 312.935C1605.56 320.134 1638 314.677 1666.79 292.966C1672.55 288.624 1677.89 285.187 1685.07 284.955C1687.29 284.468 1689.5 283.957 1691.73 283.539C1726.65 276.805 1744.76 255.559 1743.18 223.144C1741 210.373 1734.34 200.388 1723.89 192.935C1699.04 175.171 1670.86 172.083 1641.65 175.38C1635.91 176.03 1632.52 175.636 1628.76 171.317C1603.22 142.013 1547.58 141.27 1521.37 169.691C1518.67 172.617 1516.47 173.082 1511.89 172.664C1481.38 169.854 1452.27 173.639 1427.26 193.91C1412.05 206.24 1400.44 232.896 1410.91 248.848L1410.94 248.825ZM110.643 498.95C166.997 500.901 204.218 445.01 180.14 393.973C167.346 366.875 145.496 348.09 112.756 343.168C71.8437 337.014 41.1243 362.951 31.7204 392.255C15.6525 442.27 57.8423 498.858 110.667 498.974L110.643 498.95ZM946.941 920.857C940.997 919.928 938.164 919.255 935.331 919.092C911.183 917.746 887.057 917.722 862.816 915.331C824.969 911.615 786.726 910.315 748.692 907.598C723.105 905.764 697.795 911.105 672.486 909.851C650.358 908.736 630.064 916.05 608.818 918.674C606.403 918.976 602.595 918.767 602.502 922.366C602.41 925.292 605.358 926.894 607.866 927.846C611.465 929.193 615.203 930.215 618.942 931.097C635.172 934.998 651.612 936.345 668.283 935.532C672.022 935.346 678.012 933.605 678.779 939.503C679.545 945.493 675.992 948.953 669.375 950.23C658.043 952.413 646.55 954.456 635.985 959.472C632.85 960.958 629.228 962.606 629.669 966.832C630.134 971.082 634.151 972.359 637.401 972.382C655.907 972.521 674.436 973.752 692.919 971.848C693.546 971.778 694.01 970.315 694.475 969.619C692.037 966.438 687.695 969.874 685.907 966.577C705.226 955.942 726.68 953.899 748.019 951.159C769.381 948.419 791.649 948.535 811.942 943.032C842.778 934.673 875.1 939.131 905.262 928.543C917.591 924.224 931.384 928.055 946.964 920.857H946.941ZM1754.45 904.998C1741.42 906.321 1728.37 907.645 1715.34 908.968C1715.48 910.083 1715.62 911.221 1715.76 912.335C1728.86 911.685 1742.46 915.307 1754.45 904.998ZM1875.91 876.553C1861.23 870.841 1852.5 883.426 1838.34 884.077C1854.5 891.716 1863 878.109 1875.91 876.553ZM1481.87 507.124V472.828C1480.01 484.415 1477.41 495.932 1481.87 507.124ZM811.71 824.634C822.786 829.069 833.653 830.206 844.473 824.634H811.71ZM1704.99 764.331C1698.39 764.563 1692.47 766.096 1688.97 772.272C1694.31 769.625 1699.65 766.978 1704.99 764.331Z" fill="#00AABD"/>
</svg>
